<?xml version="1.0" encoding="iso-8859-1"?>
<!-- Uploaded to: SVG Repo, www.svgrepo.com, Generator: SVG Repo Mixer Tools -->
<svg fill="#000000" height="800px" width="800px" version="1.1" id="Layer_1" xmlns="http://www.w3.org/2000/svg" xmlns:xlink="http://www.w3.org/1999/xlink" 
	 viewBox="0 0 512 512" xml:space="preserve">
<g>
	<g>
		<g>
			<path d="M256,0C114.618,0,0,114.618,0,256s114.618,256,256,256s256-114.618,256-256S397.382,0,256,0z M256,469.333
				c-117.818,0-213.333-95.515-213.333-213.333S138.182,42.667,256,42.667S469.333,138.182,469.333,256S373.818,469.333,256,469.333
				z"/>
			<path d="M362.667,170.667C362.667,111.759,314.907,64,256,64s-106.667,47.759-106.667,106.667
				c0,32.898,15.141,63.065,40.128,82.998l-18.63,149.022c-1.592,12.733,8.336,23.98,21.169,23.98h128
				c12.832,0,22.76-11.247,21.169-23.98l-18.63-149.022C347.526,233.732,362.667,203.564,362.667,170.667z M288.775,225.285
				c-7.228,4.351-11.214,12.553-10.167,20.924L295.834,384h-79.667l17.226-137.791c1.047-8.372-2.939-16.574-10.167-20.924
				C203.935,213.674,192,193.245,192,170.667c0-35.343,28.657-64,64-64s64,28.657,64,64
				C320,193.245,308.065,213.674,288.775,225.285z"/>
		</g>
	</g>
</g>
</svg>